<svg width="330" height="330" viewBox="0 0 330 330" fill="none" xmlns="http://www.w3.org/2000/svg">
<path d="M19.5987 87.7338C30.3798 46.9425 80.52 40.326 134.713 44.352C254.737 53.262 321.717 74.2962 322.153 124.816C322.575 171.989 316.153 257.875 293.314 271.069C270.475 284.262 76.3158 284.632 41.6724 254.73C22.0803 237.808 5.27996 141.916 19.5987 87.7338Z" fill="#FEEFE6"/>
<path d="M158.529 46.3518C158.529 46.3518 173.785 52.9848 189.176 107.243C204.567 161.502 254.156 129.353 298.188 82.1238" stroke="white" stroke-miterlimit="10"/>
<path d="M39.0852 59.5353C39.0852 59.5353 112.834 41.3094 133.033 123.39C153.232 205.471 228.776 225.03 315.879 214.411" stroke="white" stroke-miterlimit="10"/>
<path d="M5.33936 156.42H72.8178C72.8178 156.42 73.524 148.028 65.0331 146.292C65.0331 146.292 71.1183 136.765 61.0236 129.225C51.7044 122.265 39.3195 128.202 39.0852 136.026C39.0852 136.026 34.6038 131.505 27.0567 134.02C21.7767 135.788 18.0147 142.689 20.3742 148.507C20.3742 148.5 8.73836 144.87 5.33936 156.42Z" fill="white"/>
<path d="M252.754 294.607H172.56V137.692L212.655 108.682L252.754 137.692V294.607Z" fill="white"/>
<path d="M194.981 159.218H183.371C182.11 159.218 181.088 160.241 181.088 161.502V173.111C181.088 174.373 182.11 175.395 183.371 175.395H194.981C196.242 175.395 197.264 174.373 197.264 173.111V161.502C197.264 160.241 196.242 159.218 194.981 159.218Z" fill="#FBCDB1"/>
<path d="M218.46 159.218H206.851C205.589 159.218 204.567 160.241 204.567 161.502V173.111C204.567 174.373 205.589 175.395 206.851 175.395H218.46C219.721 175.395 220.744 174.373 220.744 173.111V161.502C220.744 160.241 219.721 159.218 218.46 159.218Z" fill="#FBCDB1"/>
<path d="M241.94 159.218H230.33C229.069 159.218 228.047 160.241 228.047 161.502V173.111C228.047 174.373 229.069 175.395 230.33 175.395H241.94C243.201 175.395 244.223 174.373 244.223 173.111V161.502C244.223 160.241 243.201 159.218 241.94 159.218Z" fill="#FBCDB1"/>
<path d="M194.981 182.721H183.371C182.11 182.721 181.088 183.743 181.088 185.005V196.614C181.088 197.875 182.11 198.898 183.371 198.898H194.981C196.242 198.898 197.264 197.875 197.264 196.614V185.005C197.264 183.743 196.242 182.721 194.981 182.721Z" fill="#FBCDB1"/>
<path d="M218.46 182.721H206.851C205.589 182.721 204.567 183.743 204.567 185.005V196.614C204.567 197.875 205.589 198.898 206.851 198.898H218.46C219.721 198.898 220.744 197.875 220.744 196.614V185.005C220.744 183.743 219.721 182.721 218.46 182.721Z" fill="#FBCDB1"/>
<path d="M241.94 182.721H230.33C229.069 182.721 228.047 183.743 228.047 185.005V196.614C228.047 197.875 229.069 198.898 230.33 198.898H241.94C243.201 198.898 244.223 197.875 244.223 196.614V185.005C244.223 183.743 243.201 182.721 241.94 182.721Z" fill="#FBCDB1"/>
<path d="M194.981 206.22H183.371C182.11 206.22 181.088 207.243 181.088 208.504V220.113C181.088 221.374 182.11 222.397 183.371 222.397H194.981C196.242 222.397 197.264 221.374 197.264 220.113V208.504C197.264 207.243 196.242 206.22 194.981 206.22Z" fill="#FBCDB1"/>
<path d="M218.46 206.22H206.851C205.589 206.22 204.567 207.243 204.567 208.504V220.113C204.567 221.374 205.589 222.397 206.851 222.397H218.46C219.721 222.397 220.744 221.374 220.744 220.113V208.504C220.744 207.243 219.721 206.22 218.46 206.22Z" fill="#FBCDB1"/>
<path d="M241.94 206.22H230.33C229.069 206.22 228.047 207.243 228.047 208.504V220.113C228.047 221.374 229.069 222.397 230.33 222.397H241.94C243.201 222.397 244.223 221.374 244.223 220.113V208.504C244.223 207.243 243.201 206.22 241.94 206.22Z" fill="#FBCDB1"/>
<path d="M194.981 229.723H183.371C182.11 229.723 181.088 230.745 181.088 232.006V243.616C181.088 244.877 182.11 245.899 183.371 245.899H194.981C196.242 245.899 197.264 244.877 197.264 243.616V232.006C197.264 230.745 196.242 229.723 194.981 229.723Z" fill="#FBCDB1"/>
<path d="M218.46 229.723H206.851C205.589 229.723 204.567 230.745 204.567 232.006V243.616C204.567 244.877 205.589 245.899 206.851 245.899H218.46C219.721 245.899 220.744 244.877 220.744 243.616V232.006C220.744 230.745 219.721 229.723 218.46 229.723Z" fill="#FBCDB1"/>
<path d="M241.94 229.723H230.33C229.069 229.723 228.047 230.745 228.047 232.006V243.616C228.047 244.877 229.069 245.899 230.33 245.899H241.94C243.201 245.899 244.223 244.877 244.223 243.616V232.006C244.223 230.745 243.201 229.723 241.94 229.723Z" fill="#FBCDB1"/>
<path d="M194.981 253.222H183.371C182.11 253.222 181.088 254.245 181.088 255.506V267.115C181.088 268.376 182.11 269.399 183.371 269.399H194.981C196.242 269.399 197.264 268.376 197.264 267.115V255.506C197.264 254.245 196.242 253.222 194.981 253.222Z" fill="#FBCDB1"/>
<path d="M218.46 253.222H206.851C205.589 253.222 204.567 254.245 204.567 255.506V267.115C204.567 268.376 205.589 269.399 206.851 269.399H218.46C219.721 269.399 220.744 268.376 220.744 267.115V255.506C220.744 254.245 219.721 253.222 218.46 253.222Z" fill="#FBCDB1"/>
<path d="M241.94 253.222H230.33C229.069 253.222 228.047 254.245 228.047 255.506V267.115C228.047 268.376 229.069 269.399 230.33 269.399H241.94C243.201 269.399 244.223 268.376 244.223 267.115V255.506C244.223 254.245 243.201 253.222 241.94 253.222Z" fill="#FBCDB1"/>
<path d="M212.655 146.873C218.019 146.873 222.367 142.525 222.367 137.161C222.367 131.797 218.019 127.449 212.655 127.449C207.292 127.449 202.943 131.797 202.943 137.161C202.943 142.525 207.292 146.873 212.655 146.873Z" fill="#FBCDB1"/>
<path d="M103.485 89.2782H57.5454V115.22H103.485V89.2782Z" fill="#FBCDB1"/>
<path d="M110.946 294.607H49.0182V80.3385L110.946 115.21V294.607Z" fill="white"/>
<path d="M98.4455 124.529H84.9947C84.242 124.529 83.6318 125.139 83.6318 125.892V139.343C83.6318 140.095 84.242 140.705 84.9947 140.705H98.4455C99.1982 140.705 99.8084 140.095 99.8084 139.343V125.892C99.8084 125.139 99.1982 124.529 98.4455 124.529Z" fill="#FBCDB1"/>
<path d="M98.4455 148.028H84.9947C84.242 148.028 83.6318 148.638 83.6318 149.391V162.842C83.6318 163.595 84.242 164.205 84.9947 164.205H98.4455C99.1982 164.205 99.8084 163.595 99.8084 162.842V149.391C99.8084 148.638 99.1982 148.028 98.4455 148.028Z" fill="#85A8FF"/>
<path d="M98.4455 171.531H84.9947C84.242 171.531 83.6318 172.141 83.6318 172.894V186.344C83.6318 187.097 84.242 187.707 84.9947 187.707H98.4455C99.1982 187.707 99.8084 187.097 99.8084 186.344V172.894C99.8084 172.141 99.1982 171.531 98.4455 171.531Z" fill="#85A8FF"/>
<path d="M98.4455 195.033H84.9947C84.242 195.033 83.6318 195.643 83.6318 196.396V209.847C83.6318 210.6 84.242 211.21 84.9947 211.21H98.4455C99.1982 211.21 99.8084 210.6 99.8084 209.847V196.396C99.8084 195.643 99.1982 195.033 98.4455 195.033Z" fill="#85A8FF"/>
<path d="M74.966 124.529H61.5152C60.7625 124.529 60.1523 125.139 60.1523 125.892V233.35C60.1523 234.102 60.7625 234.712 61.5152 234.712H74.966C75.7188 234.712 76.3289 234.102 76.3289 233.35V125.892C76.3289 125.139 75.7188 124.529 74.966 124.529Z" fill="#FBCDB1"/>
<path d="M98.4455 218.533H84.9947C84.242 218.533 83.6318 219.143 83.6318 219.895V233.346C83.6318 234.099 84.242 234.709 84.9947 234.709H98.4455C99.1982 234.709 99.8084 234.099 99.8084 233.346V219.895C99.8084 219.143 99.1982 218.533 98.4455 218.533Z" fill="#85A8FF"/>
<path d="M308.17 186.816H259.984V294.611H308.17V186.816Z" fill="white"/>
<path d="M273.646 206.052H266.3C265.644 206.052 265.112 206.584 265.112 207.24V214.586C265.112 215.242 265.644 215.774 266.3 215.774H273.646C274.302 215.774 274.834 215.242 274.834 214.586V207.24C274.834 206.584 274.302 206.052 273.646 206.052Z" fill="#FBCDB1"/>
<path d="M287.753 206.052H280.408C279.751 206.052 279.22 206.584 279.22 207.24V214.586C279.22 215.242 279.751 215.774 280.408 215.774H287.753C288.41 215.774 288.941 215.242 288.941 214.586V207.24C288.941 206.584 288.41 206.052 287.753 206.052Z" fill="#FBCDB1"/>
<path d="M301.861 206.052H294.515C293.859 206.052 293.327 206.584 293.327 207.24V214.586C293.327 215.242 293.859 215.774 294.515 215.774H301.861C302.517 215.774 303.049 215.242 303.049 214.586V207.24C303.049 206.584 302.517 206.052 301.861 206.052Z" fill="#FBCDB1"/>
<path d="M273.646 220.173H266.3C265.644 220.173 265.112 220.705 265.112 221.361V228.706C265.112 229.363 265.644 229.894 266.3 229.894H273.646C274.302 229.894 274.834 229.363 274.834 228.706V221.361C274.834 220.705 274.302 220.173 273.646 220.173Z" fill="#FBCDB1"/>
<path d="M287.753 220.173H280.408C279.751 220.173 279.22 220.705 279.22 221.361V228.706C279.22 229.363 279.751 229.894 280.408 229.894H287.753C288.41 229.894 288.941 229.363 288.941 228.706V221.361C288.941 220.705 288.41 220.173 287.753 220.173Z" fill="#FBCDB1"/>
<path d="M301.861 220.173H294.515C293.859 220.173 293.327 220.705 293.327 221.361V228.706C293.327 229.363 293.859 229.894 294.515 229.894H301.861C302.517 229.894 303.049 229.363 303.049 228.706V221.361C303.049 220.705 302.517 220.173 301.861 220.173Z" fill="#FBCDB1"/>
<path d="M273.646 234.293H266.3C265.644 234.293 265.112 234.825 265.112 235.481V242.827C265.112 243.483 265.644 244.015 266.3 244.015H273.646C274.302 244.015 274.834 243.483 274.834 242.827V235.481C274.834 234.825 274.302 234.293 273.646 234.293Z" fill="#FBCDB1"/>
<path d="M287.753 234.293H280.408C279.751 234.293 279.22 234.825 279.22 235.481V242.827C279.22 243.483 279.751 244.015 280.408 244.015H287.753C288.41 244.015 288.941 243.483 288.941 242.827V235.481C288.941 234.825 288.41 234.293 287.753 234.293Z" fill="#FBCDB1"/>
<path d="M301.861 234.293H294.515C293.859 234.293 293.327 234.825 293.327 235.481V242.827C293.327 243.483 293.859 244.015 294.515 244.015H301.861C302.517 244.015 303.049 243.483 303.049 242.827V235.481C303.049 234.825 302.517 234.293 301.861 234.293Z" fill="#FBCDB1"/>
<path d="M273.646 248.414H266.3C265.644 248.414 265.112 248.946 265.112 249.602V256.948C265.112 257.604 265.644 258.136 266.3 258.136H273.646C274.302 258.136 274.834 257.604 274.834 256.948V249.602C274.834 248.946 274.302 248.414 273.646 248.414Z" fill="#FBCDB1"/>
<path d="M287.753 248.414H280.408C279.751 248.414 279.22 248.946 279.22 249.602V256.948C279.22 257.604 279.751 258.136 280.408 258.136H287.753C288.41 258.136 288.941 257.604 288.941 256.948V249.602C288.941 248.946 288.41 248.414 287.753 248.414Z" fill="#FBCDB1"/>
<path d="M301.861 248.414H294.515C293.859 248.414 293.327 248.946 293.327 249.602V256.948C293.327 257.604 293.859 258.136 294.515 258.136H301.861C302.517 258.136 303.049 257.604 303.049 256.948V249.602C303.049 248.946 302.517 248.414 301.861 248.414Z" fill="#FBCDB1"/>
<path d="M273.646 262.535H266.3C265.644 262.535 265.112 263.067 265.112 263.723V271.069C265.112 271.725 265.644 272.257 266.3 272.257H273.646C274.302 272.257 274.834 271.725 274.834 271.069V263.723C274.834 263.067 274.302 262.535 273.646 262.535Z" fill="#FBCDB1"/>
<path d="M287.753 262.535H280.408C279.751 262.535 279.22 263.067 279.22 263.723V271.069C279.22 271.725 279.751 272.257 280.408 272.257H287.753C288.41 272.257 288.941 271.725 288.941 271.069V263.723C288.941 263.067 288.41 262.535 287.753 262.535Z" fill="#FBCDB1"/>
<path d="M301.861 262.535H294.515C293.859 262.535 293.327 263.067 293.327 263.723V271.069C293.327 271.725 293.859 272.257 294.515 272.257H301.861C302.517 272.257 303.049 271.725 303.049 271.069V263.723C303.049 263.067 302.517 262.535 301.861 262.535Z" fill="#FBCDB1"/>
<path d="M259.984 201.109H308.174" stroke="#EAE6FF" stroke-width="2" stroke-miterlimit="10"/>
<path d="M181.087 85.14H241.385C241.385 85.14 242.015 77.6424 234.429 76.0881C234.429 76.0881 239.867 67.5741 230.845 60.8388C222.519 54.6216 211.454 59.9247 211.243 66.9141C211.243 66.9141 207.24 62.8749 200.495 65.1222C195.763 66.7029 192.416 72.8673 194.522 78.0681C194.522 78.0714 184.14 74.8209 181.087 85.14Z" fill="white"/>
<path d="M16.5297 241.89L17.5395 244.53C17.602 244.693 17.698 244.841 17.8214 244.964C17.9448 245.088 18.0927 245.184 18.2556 245.246L20.8956 246.256C21.1264 246.348 21.3242 246.508 21.4635 246.714C21.6029 246.919 21.6774 247.162 21.6774 247.411C21.6774 247.659 21.6029 247.902 21.4635 248.108C21.3242 248.314 21.1264 248.474 20.8956 248.566L18.2556 249.579C18.0924 249.641 17.9442 249.737 17.8207 249.86C17.6973 249.984 17.6014 250.132 17.5395 250.295L16.5297 252.935C16.4388 253.17 16.2791 253.371 16.0715 253.514C15.8639 253.656 15.6181 253.732 15.3664 253.732C15.1148 253.732 14.869 253.656 14.6614 253.514C14.4538 253.371 14.2941 253.17 14.2032 252.935L13.1934 250.295C13.1309 250.132 13.0349 249.984 12.9115 249.861C12.7881 249.738 12.6402 249.641 12.4773 249.579L9.8373 248.566C9.60651 248.474 9.4087 248.314 9.26935 248.108C9.13001 247.902 9.05554 247.659 9.05554 247.411C9.05554 247.162 9.13001 246.919 9.26935 246.714C9.4087 246.508 9.60651 246.348 9.8373 246.256L12.4773 245.246C12.6411 245.184 12.7901 245.088 12.9145 244.965C13.039 244.841 13.1363 244.693 13.2 244.53L14.19 241.89C14.2785 241.651 14.438 241.445 14.6471 241.299C14.8563 241.154 15.105 241.076 15.3598 241.076C15.6147 241.076 15.8634 241.154 16.0726 241.299C16.2817 241.445 16.4412 241.651 16.5297 241.89Z" fill="#FEEFE6"/>
<path d="M221.483 31.02L222.493 33.66C222.555 33.8232 222.65 33.9714 222.774 34.0949C222.897 34.2183 223.045 34.3142 223.209 34.3761L225.849 35.3892C226.079 35.4816 226.277 35.641 226.417 35.8468C226.556 36.0527 226.63 36.2956 226.63 36.5442C226.63 36.7928 226.556 37.0357 226.417 37.2415C226.277 37.4474 226.079 37.6068 225.849 37.6992L223.209 38.7123C223.045 38.7742 222.897 38.8701 222.774 38.9935C222.65 39.117 222.555 39.2652 222.493 39.4284L221.483 42.0684C221.389 42.2979 221.229 42.4943 221.024 42.6325C220.818 42.7708 220.576 42.8446 220.328 42.8446C220.08 42.8446 219.838 42.7708 219.632 42.6325C219.426 42.4943 219.266 42.2979 219.173 42.0684L218.163 39.4284C218.101 39.2652 218.005 39.117 217.882 38.9935C217.758 38.8701 217.61 38.7742 217.447 38.7123L214.807 37.6992C214.576 37.6068 214.378 37.4474 214.239 37.2415C214.1 37.0357 214.025 36.7928 214.025 36.5442C214.025 36.2956 214.1 36.0527 214.239 35.8468C214.378 35.641 214.576 35.4816 214.807 35.3892L217.447 34.3761C217.61 34.3142 217.758 34.2183 217.882 34.0949C218.005 33.9714 218.101 33.8232 218.163 33.66L219.173 31.02C219.266 30.7905 219.426 30.5941 219.632 30.4558C219.838 30.3176 220.08 30.2437 220.328 30.2437C220.576 30.2437 220.818 30.3176 221.024 30.4558C221.229 30.5941 221.389 30.7905 221.483 31.02Z" fill="#FEEFE6"/>
<path d="M299.349 141.349L300.359 143.989C300.422 144.152 300.518 144.3 300.641 144.423C300.765 144.546 300.912 144.643 301.075 144.705L303.715 145.715C303.945 145.808 304.141 145.968 304.28 146.174C304.418 146.38 304.492 146.622 304.492 146.87C304.492 147.118 304.418 147.36 304.28 147.566C304.141 147.771 303.945 147.931 303.715 148.025L301.075 149.035C300.912 149.097 300.765 149.193 300.641 149.316C300.518 149.44 300.422 149.588 300.359 149.751L299.349 152.391C299.257 152.621 299.098 152.819 298.892 152.959C298.686 153.098 298.443 153.172 298.194 153.172C297.946 153.172 297.703 153.098 297.497 152.959C297.291 152.819 297.132 152.621 297.039 152.391L296.026 149.751C295.964 149.587 295.869 149.439 295.745 149.316C295.622 149.192 295.474 149.097 295.31 149.035L292.67 148.025C292.441 147.931 292.244 147.771 292.106 147.566C291.968 147.36 291.894 147.118 291.894 146.87C291.894 146.622 291.968 146.38 292.106 146.174C292.244 145.968 292.441 145.808 292.67 145.715L295.31 144.705C295.474 144.643 295.622 144.547 295.745 144.424C295.869 144.3 295.964 144.152 296.026 143.989L297.039 141.349C297.132 141.118 297.291 140.92 297.497 140.781C297.703 140.642 297.946 140.567 298.194 140.567C298.443 140.567 298.686 140.642 298.892 140.781C299.098 140.92 299.257 141.118 299.349 141.349Z" fill="white"/>
<path d="M151.321 257.172C151.321 257.172 70.8014 241.755 64.9406 246.695C59.0798 251.635 56.7599 262.479 67.9964 266.013C79.3286 269.577 91.5155 271.544 100.769 273.072C110.022 274.6 149.318 275.814 149.318 275.814L151.321 257.172Z" fill="#333856"/>
<path d="M264.184 201.336C266.528 199.983 267.331 196.985 265.978 194.642C264.624 192.298 261.627 191.495 259.284 192.848L240.824 203.505C238.481 204.858 237.677 207.856 239.031 210.199C240.384 212.543 243.381 213.346 245.725 211.993L264.184 201.336Z" fill="#C24B02"/>
<path d="M239.491 188.463C239.491 188.463 245.312 189.493 249.391 188.202C253.47 186.912 256.862 187.265 259.321 190.182C261.779 193.1 265.237 196.723 264.713 199.023C264.188 201.323 261.413 200.29 261.413 200.29C261.413 200.29 262.861 202.491 260.621 203.759C258.826 204.768 257.545 203.158 257.545 203.158C257.545 203.158 258.321 205.333 255.931 206.491C254.611 207.128 252.8 205.831 252.8 205.831C252.8 205.831 251.186 208.702 249.397 208.115C247.609 207.527 247.328 203.851 245.091 202.409C242.342 200.643 237.531 199.502 237.531 199.502C237.531 199.502 237.861 195.142 238.098 193.892C238.778 190.136 239.491 188.463 239.491 188.463Z" fill="#FFA397"/>
<path d="M257.093 194.294L261.4 200.303" stroke="#C24B02" stroke-width="2" stroke-linecap="round" stroke-linejoin="round"/>
<path d="M257.532 203.171L254.229 198.139" stroke="white" stroke-width="2" stroke-linecap="round" stroke-linejoin="round"/>
<path d="M183.388 178.233C183.388 178.233 176.933 169.165 170.333 159.443C163.733 149.721 156.984 139.343 149.229 136.851C133.719 131.865 124.499 153.49 141.134 170.244C157.77 186.998 168.673 198.795 175.372 200.858C182.071 202.92 239.283 206.824 239.283 206.824C239.283 206.824 238.121 194.037 241.794 186.08L183.388 178.233Z" fill="#C24B02"/>
<path d="M60.1655 141.801L90.8225 130.706C96.1982 129.178 100.785 129.664 105.405 129.934C112.665 130.357 132.957 132.574 132.957 132.574L93.8387 145.263L60.1655 141.801Z" fill="#552101"/>
<path d="M93.8388 145.263L65.1288 141.273C63.6654 141.069 62.1754 141.182 60.7591 141.602C59.3427 142.023 58.0329 142.742 56.9179 143.711C55.8029 144.681 54.9085 145.878 54.2949 147.222C53.6814 148.566 53.3629 150.026 53.361 151.503V238.623C53.3603 240.945 54.1412 243.199 55.5779 245.024C57.0146 246.848 59.0235 248.135 61.281 248.678L96.5448 257.159L93.8388 145.263Z" fill="#1C2035"/>
<path d="M60.1655 248.348C60.5372 248.48 60.9163 248.59 61.3007 248.678L86.2058 254.668V212.794C86.2057 211.511 85.7691 210.267 84.9678 209.265C84.1666 208.264 83.0483 207.565 81.797 207.283L64.9505 203.495C64.3764 203.365 63.7807 203.367 63.2073 203.499C62.6339 203.631 62.0976 203.891 61.6381 204.259C61.1786 204.626 60.8077 205.092 60.5528 205.623C60.2979 206.153 60.1655 206.734 60.1655 207.322V248.348Z" fill="#FFBA40"/>
<path d="M132.954 132.581L135.287 240.362L96.5645 257.172L93.8387 145.263L132.954 132.581Z" fill="#FFC550"/>
<path d="M223.657 279.391C204.89 280.051 177.18 279.111 177.127 279.23C154.687 255.687 140.349 251.104 157.961 278.447C145.319 277.913 118.625 275.342 100.756 273.072C97.5116 266.422 95.7032 254.064 95.7032 254.064L163.135 225.789C163.215 225.76 214.879 263.825 223.657 279.391Z" fill="#552101"/>
<path d="M102.96 127.71C102.96 127.71 91.9181 133.98 81.3713 141.382C70.8245 148.784 73.1213 168.112 75.923 180.408C78.7247 192.703 95.4458 257.07 95.4458 257.07C95.4458 257.07 146.424 260.235 170.333 232.109C170.333 232.109 160.291 206.794 160.39 179.725C160.443 165.277 159.799 154.549 155.569 142.887C152.727 135.059 143.392 132.987 143.392 132.987L102.96 127.71Z" fill="#F25E02"/>
<path d="M102.96 127.71C102.96 127.71 112.487 123.539 113.599 112.398L137.897 123.215C137.897 123.215 136.805 131.304 146.477 133.983C146.477 133.996 119.552 144.451 102.96 127.71Z" fill="#FFA397"/>
<path d="M117.48 118.658C117.48 118.658 124.7 133.353 140.194 130.284C140.194 130.284 137.884 127.482 137.287 124.674L117.48 118.658Z" fill="#162A4D"/>
<path d="M151.114 87.9549C151.114 87.9549 155.889 107.936 146.632 121.648C137.376 135.359 119.12 126.123 113.609 112.408C108.098 98.6931 112.088 89.6676 112.088 89.6676C112.088 89.6676 139.709 82.9059 151.114 87.9549Z" fill="#FFA397"/>
<path d="M154.856 96.7989C156.753 96.4491 158.156 96.0696 158.486 92.7465C158.948 88.3476 154.948 88.1694 154.948 88.1694C154.948 88.1694 154.81 91.443 154.8 92.6541C154.793 94.281 154.856 96.7989 154.856 96.7989Z" fill="#C24B02"/>
<path d="M123.337 91.7037C123.337 91.7037 120.8 95.4525 124.743 104.574C127.66 111.309 129.142 117.892 121.991 122.611C116.071 126.519 92.8554 115.965 98.5875 87.7404C102.97 66.1617 128.142 59.3076 144.038 68.2473C161.393 78.0087 152.344 90.7731 156.09 101.683C158.862 109.751 156.361 116.12 148.358 118.549C148.358 118.549 153.598 105.603 151.246 91.1295C151.246 91.1229 140.801 84.843 123.337 91.7037Z" fill="#552101"/>
<path d="M134.076 103.356C134.878 103.356 135.528 102.706 135.528 101.904C135.528 101.102 134.878 100.452 134.076 100.452C133.274 100.452 132.624 101.102 132.624 101.904C132.624 102.706 133.274 103.356 134.076 103.356Z" fill="#162A4D"/>
<path d="M148.787 103.356C149.589 103.356 150.239 102.706 150.239 101.904C150.239 101.102 149.589 100.452 148.787 100.452C147.985 100.452 147.335 101.102 147.335 101.904C147.335 102.706 147.985 103.356 148.787 103.356Z" fill="#162A4D"/>
<path d="M144.949 94.3206C144.949 94.3206 149.401 90.5421 153.12 95.37C153.12 95.37 149.035 94.1754 144.949 94.3206Z" fill="#162A4D"/>
<path d="M137.907 94.3206C137.907 94.3206 133.455 90.5421 129.733 95.3766C129.733 95.37 133.822 94.1754 137.907 94.3206Z" fill="#162A4D"/>
<path d="M142.646 103.356C142.646 103.356 143.788 106.399 145.108 109.214C146.428 112.028 144.844 112.992 142.646 113.431" stroke="#162A4D" stroke-width="2" stroke-linecap="round" stroke-linejoin="round"/>
<path d="M137.907 119.321C137.907 119.321 133.402 118.18 131.518 114.576" stroke="#162A4D" stroke-width="2" stroke-linecap="round" stroke-linejoin="round"/>
<path d="M111.266 78.6951C109.85 80.0353 108.509 81.4532 107.25 82.9422C106.511 83.7957 106.109 84.8903 106.122 86.0194C106.135 87.1485 106.561 88.2338 107.319 89.0703C107.995 89.8208 108.898 90.3292 109.891 90.5175C110.883 90.7058 111.91 90.5638 112.814 90.1131L114.203 89.4234C114.766 89.1436 115.414 89.0835 116.019 89.255C116.624 89.4264 117.144 89.817 117.477 90.3507L118.328 91.7202C118.529 92.0905 118.803 92.4168 119.132 92.6798C119.461 92.9428 119.84 93.1373 120.246 93.2517C120.651 93.3661 121.076 93.3981 121.494 93.3459C121.912 93.2938 122.316 93.1584 122.681 92.9478C128.05 89.8557 140.771 84.1566 155.803 88.6578C160.822 90.1593 157.36 95.8056 157.36 95.8056C157.36 95.8056 161.429 93.8256 160.139 89.4762C158.849 85.1268 154.473 72.1149 150.998 69.6762C143.88 64.6602 126.139 65.373 111.266 78.6951Z" fill="#F25E02"/>
<path d="M144.302 67.1814C143.548 67.056 142.76 66.9636 141.94 66.9042L136.703 87.7338C137.524 87.5754 138.372 87.4434 139.237 87.3312L144.302 67.1814Z" fill="white"/>
<path d="M128.773 90.0306C130.497 89.357 132.26 88.7872 134.053 88.3245L139.458 66.8316C137.793 66.8528 136.131 66.9918 134.485 67.2474L128.773 90.0306Z" fill="white"/>
<path d="M151.8 96.2709C151.8 96.2709 152.358 109.87 147.348 120.549" stroke="white" stroke-width="2" stroke-linecap="round" stroke-linejoin="round"/>
<path d="M110.504 88.0176C111.581 88.0176 112.454 87.1444 112.454 86.0673C112.454 84.9902 111.581 84.117 110.504 84.117C109.427 84.117 108.553 84.9902 108.553 86.0673C108.553 87.1444 109.427 88.0176 110.504 88.0176Z" fill="white"/>
<path d="M131.109 139.709C131.109 139.709 140.504 210.362 147.335 248.401" stroke="white" stroke-width="2" stroke-linecap="round" stroke-linejoin="round"/>
<path d="M84.4172 139.313C84.4172 139.313 103.422 144.5 111.385 173.504C119.348 202.508 87.6842 227.014 87.6842 227.014L90.872 239.395C90.872 239.395 123.852 217.916 124.74 183.259C125.628 148.602 99.2606 129.934 99.2606 129.934C93.6893 131.408 88.68 134.501 84.866 138.821L84.4172 139.313Z" fill="#552101"/>
<path d="M146.477 133.996C146.477 133.996 158.558 136.735 159.901 159.149C161.347 183.259 160.39 196.594 163.149 206.491C163.149 206.491 153.123 202.818 153.123 172.801C153.12 138.6 146.477 133.996 146.477 133.996Z" fill="#552101"/>
<path d="M274.524 275.814C265.98 277.758 230.327 280.173 206.214 279.444C208.814 245.718 219.552 237.534 231.32 232.02C260.337 218.391 265.112 242.827 274.524 275.814Z" fill="#1C2035"/>
<path d="M268.481 276.771C268.481 276.771 262.343 277.477 259.334 277.698L249.058 278.457C249.058 278.457 240.355 246.909 236.871 240.979C235.445 238.665 233.795 236.498 231.944 234.508C231.321 233.833 230.651 233.204 229.937 232.627L246.012 225.39C247.124 226.337 248.138 227.394 249.038 228.545C250.925 230.891 252.602 234.102 254.229 237.369C257.532 244.012 268.481 276.771 268.481 276.771Z" fill="white"/>
<path d="M196.35 227.466C195.121 225.264 194.771 222.678 195.372 220.229C195.972 217.78 197.479 215.649 199.587 214.266C202.693 212.203 209.794 209.765 211.467 205.907C214.926 197.954 234.673 191.839 240.029 195.261C243.599 197.541 248.186 195.624 250.668 195.416C255.545 195.013 258.288 199.706 257.35 203.62C255.776 210.22 253.06 207.636 252.334 217.731C252.117 220.846 253.714 225.136 250.143 227.766C242.992 233.046 233.112 236.494 227.459 233.297C226.063 232.508 223.941 229.627 222.839 228.865C220.159 227.017 213.599 230.495 207.933 232.188C205.766 232.841 203.441 232.737 201.341 231.891C199.242 231.046 197.493 229.511 196.383 227.538L196.35 227.466Z" fill="#1C2035"/>
<path d="M223.334 224.456C221.202 223.723 214.632 226.71 207.824 229.122C203.458 230.673 198.518 230.168 196.274 227.357L196.33 227.466L196.373 227.542C197.483 229.514 199.232 231.049 201.332 231.895C203.431 232.74 205.756 232.845 207.923 232.191C213.599 230.498 220.133 227.02 222.829 228.868C223.935 229.63 226.057 232.498 227.449 233.3C229.304 234.349 231.614 234.679 234.135 234.465C227.974 233.64 228.169 226.113 223.334 224.456Z" fill="#1D7C89"/>
<path d="M202.756 228.439C205.275 227.449 206.514 224.604 205.524 222.085C204.534 219.566 201.689 218.327 199.17 219.317L179.333 227.115C176.814 228.106 175.575 230.95 176.565 233.469C177.555 235.988 180.4 237.227 182.919 236.237L202.756 228.439Z" fill="#C24B02"/>
<path d="M257.644 205.521C260.515 203.409 265.795 199.726 267.739 199.64C267.739 199.64 267.283 201.099 269.105 201.62C270.927 202.141 271.933 199.97 270.656 198.802C269.379 197.634 267.211 198.026 264.647 198.838C262.957 199.373 258.525 200.818 255.7 201.759C255.398 201.859 255.123 202.025 254.893 202.245C254.663 202.465 254.484 202.733 254.371 203.03C254.257 203.327 254.211 203.646 254.235 203.963C254.26 204.28 254.354 204.588 254.512 204.864C254.663 205.125 254.868 205.352 255.112 205.529C255.357 205.706 255.636 205.83 255.932 205.892C256.227 205.954 256.532 205.953 256.827 205.889C257.122 205.825 257.401 205.699 257.644 205.521Z" fill="#C24B02"/>
<path d="M250.843 208.781L251.239 213.919C251.529 217.724 250.034 221.262 247.516 222.592L239.53 226.812C237.135 228.079 234.343 226.459 233.363 223.133L231.594 217.117C230.693 214.058 231.864 210.794 234.155 209.906L247.025 204.92C248.784 204.24 250.641 206.154 250.843 208.781Z" fill="#FFBA40"/>
<path d="M252.074 207.669C251.905 203.593 248.774 202.27 246.82 203.049L232.792 208.695C230.231 209.728 228.918 213.523 229.924 217.081L231.904 224.08C233 227.948 236.135 230.099 239.306 228.667" stroke="white" stroke-width="2" stroke-linecap="round" stroke-linejoin="round"/>
<path d="M245.424 205.544L244.042 206.078L241.468 225.789L242.877 225.044L245.424 205.544Z" fill="white"/>
<path d="M238.804 208.108L236.349 226.918C236.851 227.149 237.4 227.26 237.952 227.242C238.505 227.224 239.045 227.076 239.53 226.812L239.659 226.746L242.269 206.765L238.804 208.108Z" fill="white"/>
<path d="M266.834 237.12L229.341 251.859C228.413 252.224 227.957 253.272 228.321 254.2L233.159 266.506C233.524 267.434 234.572 267.89 235.499 267.526L272.993 252.787C273.921 252.422 274.377 251.374 274.012 250.446L269.175 238.14C268.81 237.212 267.762 236.756 266.834 237.12Z" fill="#1C2035"/>
<path d="M247.708 198.139L253.08 184.298C253.493 183.232 254.16 182.282 255.022 181.532C255.885 180.781 256.917 180.251 258.03 179.989L265.128 178.339" stroke="#C24B02" stroke-width="6" stroke-linecap="round" stroke-linejoin="round"/>
<path d="M276.292 182.854C279.053 178.072 277.783 172.169 273.455 169.67C269.127 167.172 263.38 169.023 260.619 173.805C257.858 178.588 259.128 184.49 263.456 186.989C267.784 189.488 273.531 187.637 276.292 182.854Z" fill="#C24B02"/>
<path d="M184.747 201.435L196.716 200.95C197.765 200.908 198.809 201.122 199.756 201.574C200.704 202.026 201.527 202.702 202.155 203.544L210.236 214.411" stroke="#C24B02" stroke-width="6" stroke-linecap="round" stroke-linejoin="round"/>
<path d="M191.76 205.958C194.521 201.176 193.251 195.273 188.923 192.775C184.596 190.276 178.849 192.127 176.088 196.91C173.326 201.692 174.597 207.595 178.924 210.093C183.252 212.592 188.999 210.741 191.76 205.958Z" fill="#C24B02"/>
<path d="M227.202 236.894C227.202 236.894 211.2 247.398 210.236 275.814" stroke="white" stroke-width="2" stroke-linecap="round" stroke-linejoin="round"/>
<path d="M169.57 210.362C169.57 210.362 177.715 213.939 183.925 214.523C190.136 215.107 195.179 213.467 197.053 218.391C198.927 223.314 202.039 228.063 200.802 230.34C199.564 232.617 196.465 231.162 196.465 231.162C196.465 231.162 196.716 232.957 195.314 233.726C193.664 234.627 191.865 233.274 191.865 233.274C191.865 233.274 191.991 235.006 190.585 235.65C189.179 236.293 187.724 235.287 187.724 235.287C187.724 235.287 187.394 236.58 186.212 236.844C185.65 236.997 185.056 236.99 184.496 236.825C183.937 236.66 183.435 236.344 183.044 235.91C183.044 235.91 185.747 234.521 185.282 230.812C184.747 226.552 179.322 227.103 179.322 227.103C179.322 227.103 176.718 231.581 172.392 230.703C168.066 229.825 165.132 226.816 160.38 225.888L169.57 210.362Z" fill="#FFA397"/>
<path d="M195.076 226.555L196.465 231.165" stroke="#162A4D" stroke-width="2" stroke-linecap="round" stroke-linejoin="round"/>
<path d="M191.865 233.277L190.684 228.858" stroke="#162A4D" stroke-width="2" stroke-linecap="round" stroke-linejoin="round"/>
<path d="M177.56 213.216C177.56 213.216 173.22 222.935 173.666 230.815C173.666 230.815 171.3 230.815 169.762 229.772C169.762 229.772 173.359 217.711 177.56 213.216Z" fill="#162A4D"/>
<path d="M192.39 236.94C192.39 236.94 193.621 237.996 193.182 239.488C192.743 240.979 188.965 241.247 188.611 238.214C188.314 235.656 202.399 226.192 206.818 223.288C207.22 223.021 207.68 222.852 208.159 222.795C208.639 222.737 209.125 222.793 209.58 222.958C210.084 223.143 210.531 223.455 210.878 223.864C211.225 224.274 211.46 224.766 211.56 225.294C211.66 225.821 211.621 226.366 211.447 226.874C211.274 227.381 210.971 227.836 210.57 228.192C209.44 229.162 208.124 229.892 206.702 230.337C200.92 232.277 195.911 233.158 192.39 236.94Z" fill="#C24B02"/>
<path d="M121.549 191.232C121.549 191.232 115.299 178.86 107.785 163.35C103.429 154.377 97.3104 145.995 91.3143 144.372C74.4645 139.814 67.2243 158.991 81.7443 179.708C96.2643 200.425 102.472 211.005 109.167 214.401C115.863 217.797 170.343 232.092 170.343 232.092C170.343 232.092 172.501 219.084 178.593 211.876L121.549 191.232Z" fill="#C24B02"/>
<path d="M177.141 279.229C177.104 279.345 164.601 278.873 157.974 278.447C151.351 268.432 141.025 253.153 160.918 260.561C171.131 263.842 180.15 268.561 177.141 279.229Z" fill="#333856"/>
<path d="M85.9551 185.79L101.594 207.682C101.594 207.682 104.848 213.114 110.946 215.173C117.044 217.232 151.321 227.017 151.321 227.017" stroke="white" stroke-width="2" stroke-linecap="round" stroke-linejoin="round"/>
<path d="M101.31 128.7C101.31 128.7 113.378 141.184 130.736 139.748L129.812 137.28C129.457 136.331 128.866 135.488 128.094 134.832C127.321 134.175 126.394 133.728 125.4 133.531C120.991 132.667 112.952 130.281 107.25 123.872L101.31 128.7Z" fill="#C24B02"/>
<path d="M130.733 139.735L131.251 136.877C131.403 136.039 131.783 135.26 132.35 134.624C132.918 133.989 133.65 133.523 134.465 133.277C137.146 132.48 139.751 131.446 142.25 130.188L147.335 134.287C147.335 134.287 142.174 138.956 130.733 139.735Z" fill="#C24B02"/>
<path d="M109.89 134.884C109.89 134.884 123.701 144.741 142.656 136.811" stroke="white" stroke-width="2" stroke-linecap="round" stroke-linejoin="round"/>
<path d="M268.792 127.208L247.414 93.7398H303.135L281.757 127.208C281.062 128.297 280.104 129.193 278.971 129.814C277.838 130.435 276.566 130.76 275.275 130.76C273.983 130.76 272.712 130.435 271.579 129.814C270.446 129.193 269.487 128.297 268.792 127.208Z" fill="#F25E02"/>
<path d="M275.276 109.448C293.252 109.448 307.824 94.8756 307.824 76.8999C307.824 58.9242 293.252 44.352 275.276 44.352C257.3 44.352 242.728 58.9242 242.728 76.8999C242.728 94.8756 257.3 109.448 275.276 109.448Z" fill="#F25E02"/>
<path d="M275.276 89.1495C282.041 89.1495 287.526 83.6652 287.526 76.8999C287.526 70.1346 282.041 64.6503 275.276 64.6503C268.511 64.6503 263.027 70.1346 263.027 76.8999C263.027 83.6652 268.511 89.1495 275.276 89.1495Z" fill="white"/>
</svg>
