<svg width="330" height="330" viewBox="0 0 330 330" fill="none" xmlns="http://www.w3.org/2000/svg">
<path d="M43.0022 222.75C43.0022 222.75 3.59695 118.381 30.3599 76.1739C57.1229 33.9669 261.835 -0.511507 302.201 40.26C332.891 71.2404 325.799 205.831 302.201 231.228C270.458 265.386 62.8385 278.484 43.0022 222.75Z" fill="#FEEFE6"/>
<path d="M61.1985 32.8944L62.3073 35.7819C62.3764 35.9607 62.4824 36.123 62.6182 36.2583C62.7541 36.3936 62.9169 36.4989 63.096 36.5673L65.9835 37.6794C66.2417 37.7777 66.464 37.9521 66.6209 38.1796C66.7777 38.4071 66.8617 38.6769 66.8617 38.9532C66.8617 39.2295 66.7777 39.4993 66.6209 39.7268C66.464 39.9543 66.2417 40.1287 65.9835 40.227L63.096 41.3391C62.9169 41.4075 62.7541 41.5128 62.6182 41.6481C62.4824 41.7834 62.3764 41.9457 62.3073 42.1245L61.1985 45.012C61.0995 45.2699 60.9246 45.4918 60.6968 45.6483C60.4691 45.8048 60.1993 45.8886 59.923 45.8886C59.6467 45.8886 59.3769 45.8048 59.1492 45.6483C58.9215 45.4918 58.7466 45.2699 58.6476 45.012L57.5388 42.1245C57.4707 41.9456 57.3655 41.7831 57.2302 41.6477C57.0948 41.5123 56.9323 41.4072 56.7534 41.3391L53.8626 40.227C53.6043 40.1287 53.382 39.9543 53.2252 39.7268C53.0684 39.4993 52.9844 39.2295 52.9844 38.9532C52.9844 38.6769 53.0684 38.4071 53.2252 38.1796C53.382 37.9521 53.6043 37.7777 53.8626 37.6794L56.7534 36.5673C56.9323 36.4992 57.0948 36.3941 57.2302 36.2587C57.3655 36.1233 57.4707 35.9608 57.5388 35.7819L58.6476 32.8944C58.7466 32.6365 58.9215 32.4146 59.1492 32.2581C59.3769 32.1016 59.6467 32.0178 59.923 32.0178C60.1993 32.0178 60.4691 32.1016 60.6968 32.2581C60.9246 32.4146 61.0995 32.6365 61.1985 32.8944Z" fill="#FEEFE6"/>
<path d="M304.088 166.732L305.738 171.022C305.841 171.287 305.997 171.527 306.198 171.727C306.398 171.927 306.639 172.083 306.903 172.184L311.193 173.834C311.575 173.981 311.902 174.24 312.134 174.577C312.365 174.914 312.489 175.313 312.489 175.722C312.489 176.13 312.365 176.529 312.134 176.866C311.902 177.203 311.575 177.462 311.193 177.609L306.903 179.259C306.639 179.361 306.398 179.517 306.198 179.717C305.997 179.917 305.841 180.157 305.738 180.421L304.088 184.711C303.941 185.092 303.682 185.42 303.345 185.651C303.008 185.883 302.609 186.006 302.201 186.006C301.792 186.006 301.393 185.883 301.056 185.651C300.719 185.42 300.46 185.092 300.313 184.711L298.663 180.421C298.562 180.156 298.406 179.916 298.205 179.715C298.004 179.515 297.763 179.36 297.498 179.259L293.225 177.609C292.843 177.462 292.515 177.203 292.284 176.866C292.053 176.529 291.929 176.13 291.929 175.722C291.929 175.313 292.053 174.914 292.284 174.577C292.515 174.24 292.843 173.981 293.225 173.834L297.498 172.184C297.763 172.084 298.004 171.928 298.205 171.728C298.406 171.528 298.562 171.287 298.663 171.022L300.313 166.732C300.46 166.351 300.719 166.023 301.056 165.792C301.393 165.561 301.792 165.437 302.201 165.437C302.609 165.437 303.008 165.561 303.345 165.792C303.682 166.023 303.941 166.351 304.088 166.732Z" fill="white"/>
<path d="M279.18 43.1673L279.797 44.7744C279.836 44.8738 279.895 44.9641 279.971 45.0397C280.046 45.1152 280.137 45.1743 280.236 45.2133L281.843 45.8304C281.987 45.8851 282.111 45.9822 282.198 46.1089C282.286 46.2357 282.332 46.386 282.332 46.5399C282.332 46.6938 282.286 46.8441 282.198 46.9709C282.111 47.0976 281.987 47.1947 281.843 47.2494L280.236 47.8665C280.137 47.9055 280.046 47.9646 279.971 48.0401C279.895 48.1156 279.836 48.206 279.797 48.3054L279.18 49.9125C279.125 50.0564 279.028 50.1803 278.901 50.2677C278.775 50.3551 278.624 50.4019 278.47 50.4019C278.316 50.4019 278.166 50.3551 278.039 50.2677C277.913 50.1803 277.816 50.0564 277.761 49.9125L277.144 48.3054C277.105 48.206 277.046 48.1156 276.97 48.0401C276.895 47.9646 276.804 47.9055 276.705 47.8665L275.098 47.2494C274.954 47.1947 274.83 47.0976 274.743 46.9709C274.655 46.8441 274.608 46.6938 274.608 46.5399C274.608 46.386 274.655 46.2357 274.743 46.1089C274.83 45.9822 274.954 45.8851 275.098 45.8304L276.705 45.2133C276.804 45.1743 276.895 45.1152 276.97 45.0397C277.046 44.9641 277.105 44.8738 277.144 44.7744L277.761 43.1673C277.816 43.0234 277.913 42.8995 278.039 42.8121C278.166 42.7247 278.316 42.6779 278.47 42.6779C278.624 42.6779 278.775 42.7247 278.901 42.8121C279.028 42.8995 279.125 43.0234 279.18 43.1673Z" fill="white"/>
<path d="M41.91 128.469L43.0188 131.36C43.0872 131.539 43.1925 131.701 43.3279 131.836C43.4632 131.971 43.6255 132.077 43.8042 132.145L46.695 133.254C46.9529 133.353 47.1748 133.528 47.3313 133.756C47.4878 133.983 47.5716 134.253 47.5716 134.529C47.5716 134.806 47.4878 135.076 47.3313 135.303C47.1748 135.531 46.9529 135.706 46.695 135.805L43.8042 136.914C43.6258 136.983 43.4638 137.088 43.3285 137.223C43.1933 137.359 43.0878 137.521 43.0188 137.699L41.91 140.58C41.811 140.838 41.6361 141.06 41.4084 141.216C41.1806 141.373 40.9108 141.457 40.6345 141.457C40.3582 141.457 40.0884 141.373 39.8607 141.216C39.633 141.06 39.4581 140.838 39.3591 140.58L38.2503 137.689C38.1813 137.511 38.0758 137.349 37.9406 137.214C37.8053 137.078 37.6433 136.973 37.4649 136.904L34.5741 135.795C34.3161 135.696 34.0943 135.521 33.9378 135.293C33.7813 135.066 33.6975 134.796 33.6975 134.52C33.6975 134.243 33.7813 133.973 33.9378 133.746C34.0943 133.518 34.3161 133.343 34.5741 133.244L37.4649 132.135C37.6436 132.067 37.8059 131.962 37.9412 131.826C38.0765 131.691 38.1819 131.529 38.2503 131.35L39.3591 128.459C39.4591 128.202 39.6349 127.98 39.8632 127.825C40.0915 127.669 40.3616 127.586 40.6379 127.587C40.9142 127.589 41.1837 127.673 41.4108 127.831C41.6379 127.988 41.812 128.211 41.91 128.469Z" fill="white"/>
<path d="M30.36 76.1739C30.36 76.1739 112.424 70.4352 136.161 139.993C159.898 209.55 253.77 230.281 309.781 216.2" stroke="white" stroke-miterlimit="10"/>
<path d="M116.546 35.739C116.546 35.739 176.844 22.0209 208.811 77.7942C242.573 136.702 322.06 112.754 322.06 112.754" stroke="white" stroke-miterlimit="10"/>
<path d="M269.389 138.267C269.389 135.597 267.225 133.432 264.556 133.432C261.887 133.432 259.723 135.597 259.723 138.267V192.522C259.723 195.192 261.887 197.356 264.556 197.356C267.225 197.356 269.389 195.192 269.389 192.522V138.267Z" fill="#FBCDB1"/>
<path d="M269.389 221.034C269.389 218.364 267.225 216.2 264.556 216.2C261.887 216.2 259.723 218.364 259.723 221.034V238.989C259.723 241.659 261.887 243.824 264.556 243.824C267.225 243.824 269.389 241.659 269.389 238.989V221.034Z" fill="#FBCDB1"/>
<path d="M264.145 82.9983V249.031C260.162 250.097 255.971 251.104 251.605 252.041C204.211 262.221 136.231 264.485 90.5651 253.196C86.1629 252.11 81.9851 250.886 78.0251 249.566V82.9983C78.026 76.4094 80.6441 70.0906 85.3034 65.4319C89.9628 60.7731 96.2819 58.1559 102.871 58.1559H239.303C245.891 58.1559 252.21 60.7732 256.869 65.4321C261.528 70.0909 264.145 76.4097 264.145 82.9983Z" fill="white"/>
<path d="M182.797 58.1592H239.306C245.895 58.1592 252.213 60.7765 256.872 65.4354C261.531 70.0942 264.148 76.413 264.148 83.0016V249.031" stroke="#F25E02" stroke-width="2" stroke-linecap="round" stroke-linejoin="round"/>
<path d="M251.605 85.6944V252.041C204.211 262.221 136.231 264.485 90.5652 253.196V85.6944C90.5661 81.5762 92.2026 77.627 95.1149 74.7153C98.0272 71.8036 101.977 70.1679 106.095 70.1679H236.079C238.118 70.1657 240.138 70.5659 242.023 71.3454C243.908 72.1249 245.62 73.2685 247.062 74.7107C248.505 76.1529 249.648 77.8654 250.428 79.7501C251.207 81.6348 251.607 83.6548 251.605 85.6944Z" fill="#1C2035"/>
<path d="M251.605 115.394V252.041C204.211 262.221 136.231 264.485 90.5652 253.196V115.394C90.5661 111.276 92.2026 107.327 95.1149 104.415C98.0272 101.504 101.977 99.8679 106.095 99.8679H236.079C238.118 99.8657 240.138 100.266 242.023 101.045C243.908 101.825 245.62 102.968 247.062 104.411C248.505 105.853 249.648 107.565 250.428 109.45C251.207 111.335 251.607 113.355 251.605 115.394Z" fill="#F25E02"/>
<path d="M236.917 77.7942H105.244C101.367 77.7942 98.2245 80.936 98.2245 84.8117C98.2245 88.6873 101.367 91.8291 105.244 91.8291H236.917C240.793 91.8291 243.936 88.6873 243.936 84.8117C243.936 80.936 240.793 77.7942 236.917 77.7942Z" fill="white"/>
<path d="M208.811 91.8291H105.244C104.322 91.8295 103.409 91.6483 102.557 91.2957C101.705 90.9431 100.931 90.4261 100.279 89.7742C99.6275 89.1224 99.1105 88.3484 98.7579 87.4966C98.4053 86.6448 98.2241 85.7319 98.2245 84.81V84.81C98.2245 83.8882 98.406 82.9755 98.7588 82.1239C99.1115 81.2723 99.6286 80.4985 100.28 79.8467C100.932 79.195 101.706 78.6779 102.558 78.3252C103.409 77.9725 104.322 77.7909 105.244 77.7909H155.291" stroke="#F25E02" stroke-width="2" stroke-linecap="round" stroke-linejoin="round"/>
<path d="M234.359 87.0639C235.976 87.0639 237.286 85.7534 237.286 84.1368C237.286 82.5202 235.976 81.2097 234.359 81.2097C232.743 81.2097 231.432 82.5202 231.432 84.1368C231.432 85.7534 232.743 87.0639 234.359 87.0639Z" stroke="#F25E02" stroke-width="2" stroke-linecap="round" stroke-linejoin="round"/>
<path d="M238.28 88.0572L236.428 86.2059" stroke="#F25E02" stroke-width="2" stroke-linecap="round" stroke-linejoin="round"/>
<path d="M233.808 112.754H108.356C105.066 112.754 102.399 115.421 102.399 118.711V145.022C102.399 148.311 105.066 150.978 108.356 150.978H233.808C237.098 150.978 239.765 148.311 239.765 145.022V118.711C239.765 115.421 237.098 112.754 233.808 112.754Z" fill="white"/>
<path d="M130.769 120.401H112.167C110.971 120.401 110.002 121.37 110.002 122.565V141.167C110.002 142.363 110.971 143.332 112.167 143.332H130.769C131.965 143.332 132.934 142.363 132.934 141.167V122.565C132.934 121.37 131.965 120.401 130.769 120.401Z" fill="#FFBA40"/>
<path d="M126.39 135.333C126.39 137.155 124.186 137.791 121.47 137.791C118.754 137.791 116.549 137.155 116.549 135.333C116.549 133.511 118.75 132.033 121.47 132.033C124.189 132.033 126.39 133.515 126.39 135.333Z" fill="#D2E3FF"/>
<path d="M121.466 136.858C126.261 136.858 130.149 135.383 130.149 133.564C130.149 131.745 126.261 130.271 121.466 130.271C116.671 130.271 112.784 131.745 112.784 133.564C112.784 135.383 116.671 136.858 121.466 136.858Z" fill="#85A8FF"/>
<path d="M121.466 135.524C124.457 135.524 126.882 134.744 126.882 133.782C126.882 132.82 124.457 132.04 121.466 132.04C118.476 132.04 116.051 132.82 116.051 133.782C116.051 134.744 118.476 135.524 121.466 135.524Z" fill="#D2E3FF"/>
<path d="M124.74 132.396L129.759 127.776C129.841 127.722 129.91 127.651 129.961 127.567C130.012 127.483 130.043 127.389 130.053 127.292C130.063 127.194 130.051 127.096 130.018 127.003C129.986 126.911 129.933 126.827 129.863 126.758C129.794 126.689 129.71 126.636 129.618 126.603C129.525 126.57 129.427 126.558 129.33 126.568C129.232 126.578 129.138 126.61 129.054 126.66C128.97 126.711 128.899 126.78 128.845 126.862L124.225 131.881C123.943 131.817 123.648 131.83 123.373 131.92C123.098 132.009 122.852 132.171 122.661 132.389C122.054 132.997 121.909 133.838 122.331 134.27C122.753 134.703 123.605 134.554 124.212 133.94C124.43 133.754 124.594 133.512 124.687 133.24C124.78 132.969 124.798 132.677 124.74 132.396Z" fill="#3D60F6"/>
<path d="M117.536 132.04C116.157 131.38 118.064 129.228 116.876 127.802C115.688 126.377 117.496 124.644 120.407 125.852C123.318 127.06 124.954 125.278 125.083 126.905C125.251 128.918 121.744 134.023 117.536 132.04Z" fill="white"/>
<path d="M120.919 127.756C121.348 128.297 121.051 128.825 120.513 129.254C119.975 129.683 119.394 129.852 118.962 129.31C118.772 129.05 118.691 128.726 118.735 128.406C118.778 128.087 118.943 127.797 119.196 127.596C119.448 127.396 119.768 127.301 120.089 127.33C120.41 127.36 120.707 127.513 120.919 127.756Z" fill="#FF8B00"/>
<path d="M119.054 128.954C118.975 128.809 118.933 128.646 118.933 128.481C118.933 128.315 118.975 128.152 119.054 128.007C119.252 127.71 119.49 128.007 119.384 128.235C119.278 128.462 118.939 128.558 119.054 128.954Z" fill="white"/>
<path d="M211.335 122.806H142.352C141.312 122.806 140.468 123.65 140.468 124.691C140.468 125.731 141.312 126.575 142.352 126.575H211.335C212.376 126.575 213.22 125.731 213.22 124.691C213.22 123.65 212.376 122.806 211.335 122.806Z" fill="#162A4D"/>
<path d="M212.045 131.921H141.643C140.994 131.921 140.468 132.447 140.468 133.096C140.468 133.744 140.994 134.27 141.643 134.27H212.045C212.694 134.27 213.22 133.744 213.22 133.096C213.22 132.447 212.694 131.921 212.045 131.921Z" fill="#FBCDB1"/>
<path d="M179.375 137.643H141.643C140.994 137.643 140.468 138.169 140.468 138.818C140.468 139.467 140.994 139.993 141.643 139.993H179.375C180.024 139.993 180.55 139.467 180.55 138.818C180.55 138.169 180.024 137.643 179.375 137.643Z" fill="#FBCDB1"/>
<path d="M231.191 122.806H222.123C221.356 122.806 220.734 123.428 220.734 124.196V132.881C220.734 133.648 221.356 134.27 222.123 134.27H231.191C231.959 134.27 232.581 133.648 232.581 132.881V124.196C232.581 123.428 231.959 122.806 231.191 122.806Z" fill="#FFBA40"/>
<path d="M227.04 128.146H228.06V128.881H227.04V130.036H226.261V128.881H225.238V128.146H226.261V127.05H227.04V128.146Z" fill="white"/>
<path d="M233.805 163.766H108.352C105.063 163.766 102.396 166.433 102.396 169.722V196.033C102.396 199.323 105.063 201.99 108.352 201.99H233.805C237.095 201.99 239.762 199.323 239.762 196.033V169.722C239.762 166.433 237.095 163.766 233.805 163.766Z" fill="white"/>
<path d="M130.766 171.412H112.164C110.968 171.412 109.999 172.381 109.999 173.577V192.179C109.999 193.374 110.968 194.344 112.164 194.344H130.766C131.961 194.344 132.931 193.374 132.931 192.179V173.577C132.931 172.381 131.961 171.412 130.766 171.412Z" fill="#FFBA40"/>
<path d="M126.39 186.348C126.39 188.166 124.186 188.803 121.47 188.803C118.754 188.803 116.549 188.166 116.549 186.348C116.549 184.529 118.75 183.048 121.47 183.048C124.189 183.048 126.39 184.526 126.39 186.348Z" fill="#D2E3FF"/>
<path d="M121.466 187.869C126.261 187.869 130.149 186.394 130.149 184.576C130.149 182.757 126.261 181.282 121.466 181.282C116.671 181.282 112.784 182.757 112.784 184.576C112.784 186.394 116.671 187.869 121.466 187.869Z" fill="#85A8FF"/>
<path d="M121.466 186.539C124.457 186.539 126.882 185.759 126.882 184.797C126.882 183.834 124.457 183.054 121.466 183.054C118.476 183.054 116.051 183.834 116.051 184.797C116.051 185.759 118.476 186.539 121.466 186.539Z" fill="#D2E3FF"/>
<path d="M124.74 183.407L129.759 178.787C129.841 178.734 129.91 178.662 129.961 178.578C130.012 178.495 130.043 178.401 130.053 178.303C130.063 178.206 130.051 178.107 130.018 178.015C129.986 177.922 129.933 177.839 129.863 177.769C129.794 177.7 129.71 177.647 129.618 177.614C129.526 177.581 129.427 177.569 129.33 177.579C129.232 177.589 129.138 177.621 129.054 177.672C128.97 177.723 128.899 177.791 128.845 177.873L124.225 182.893C123.942 182.828 123.647 182.841 123.371 182.931C123.095 183.02 122.849 183.182 122.658 183.401C122.051 184.011 121.909 184.85 122.328 185.282C122.747 185.714 123.598 185.569 124.209 184.952C124.427 184.765 124.592 184.524 124.685 184.252C124.779 183.981 124.798 183.689 124.74 183.407Z" fill="#3D60F6"/>
<path d="M117.536 183.051C116.157 182.391 118.061 180.239 116.876 178.814C115.691 177.388 117.493 175.656 120.407 176.864C123.321 178.071 124.955 176.289 125.083 177.916C125.252 179.929 121.744 185.038 117.536 183.051Z" fill="white"/>
<path d="M120.915 178.771C121.344 179.309 121.051 179.837 120.513 180.266C119.975 180.695 119.391 180.863 118.962 180.325C118.756 180.066 118.661 179.736 118.698 179.407C118.736 179.078 118.902 178.777 119.161 178.571C119.42 178.365 119.751 178.27 120.08 178.308C120.409 178.345 120.709 178.512 120.915 178.771Z" fill="#FF8B00"/>
<path d="M119.054 179.965C118.975 179.82 118.933 179.657 118.933 179.492C118.933 179.327 118.975 179.164 119.054 179.018C119.249 178.725 119.49 179.018 119.384 179.246C119.278 179.474 118.935 179.569 119.054 179.965Z" fill="white"/>
<path d="M211.335 173.818H142.352C141.312 173.818 140.468 174.661 140.468 175.702C140.468 176.743 141.312 177.586 142.352 177.586H211.335C212.376 177.586 213.22 176.743 213.22 175.702C213.22 174.661 212.376 173.818 211.335 173.818Z" fill="#162A4D"/>
<path d="M212.045 182.932H141.643C140.994 182.932 140.468 183.458 140.468 184.107C140.468 184.756 140.994 185.282 141.643 185.282H212.045C212.694 185.282 213.22 184.756 213.22 184.107C213.22 183.458 212.694 182.932 212.045 182.932Z" fill="#FBCDB1"/>
<path d="M179.375 188.658H141.643C140.994 188.658 140.468 189.184 140.468 189.832C140.468 190.481 140.994 191.007 141.643 191.007H179.375C180.024 191.007 180.55 190.481 180.55 189.832C180.55 189.184 180.024 188.658 179.375 188.658Z" fill="#FBCDB1"/>
<path d="M231.191 173.818H222.123C221.356 173.818 220.734 174.44 220.734 175.207V183.893C220.734 184.66 221.356 185.282 222.123 185.282H231.191C231.959 185.282 232.581 184.66 232.581 183.893V175.207C232.581 174.44 231.959 173.818 231.191 173.818Z" fill="#FFBA40"/>
<path d="M227.04 179.157H228.063V179.896H227.04V181.048H226.265V179.896H225.238V179.157H226.265V178.051H227.04V179.157Z" fill="white"/>
<path d="M233.805 214.777H108.352C105.063 214.777 102.396 217.444 102.396 220.734V247.045C102.396 250.334 105.063 253.001 108.352 253.001H233.805C237.095 253.001 239.762 250.334 239.762 247.045V220.734C239.762 217.444 237.095 214.777 233.805 214.777Z" fill="white"/>
<path d="M130.766 222.423H112.164C110.968 222.423 109.999 223.393 109.999 224.588V243.19C109.999 244.386 110.968 245.355 112.164 245.355H130.766C131.961 245.355 132.931 244.386 132.931 243.19V224.588C132.931 223.393 131.961 222.423 130.766 222.423Z" fill="#FFBA40"/>
<path d="M126.39 237.359C126.39 239.177 124.189 239.814 121.47 239.814C118.75 239.814 116.549 239.177 116.549 237.359C116.549 235.541 118.754 234.059 121.47 234.059C124.186 234.059 126.39 235.541 126.39 237.359Z" fill="#D2E3FF"/>
<path d="M121.463 238.884C126.258 238.884 130.145 237.409 130.145 235.59C130.145 233.771 126.258 232.297 121.463 232.297C116.668 232.297 112.781 233.771 112.781 235.59C112.781 237.409 116.668 238.884 121.463 238.884Z" fill="#85A8FF"/>
<path d="M121.463 237.55C124.454 237.55 126.878 236.77 126.878 235.808C126.878 234.846 124.454 234.066 121.463 234.066C118.472 234.066 116.048 234.846 116.048 235.808C116.048 236.77 118.472 237.55 121.463 237.55Z" fill="#D2E3FF"/>
<path d="M124.74 234.419L129.763 229.799C129.843 229.744 129.911 229.673 129.961 229.589C130.011 229.505 130.042 229.411 130.051 229.314C130.06 229.217 130.048 229.119 130.015 229.028C129.982 228.936 129.929 228.853 129.86 228.784C129.791 228.715 129.707 228.662 129.615 228.63C129.524 228.597 129.426 228.585 129.329 228.595C129.232 228.604 129.138 228.635 129.054 228.685C128.971 228.736 128.899 228.804 128.845 228.885L124.242 233.907C123.959 233.842 123.664 233.855 123.387 233.944C123.111 234.034 122.865 234.197 122.674 234.415C122.067 235.023 121.922 235.864 122.344 236.293C122.767 236.722 123.615 236.58 124.222 235.963C124.439 235.776 124.601 235.533 124.692 235.262C124.783 234.99 124.8 234.699 124.74 234.419Z" fill="#3D60F6"/>
<path d="M117.533 234.066C116.157 233.406 118.061 231.251 116.873 229.825C115.685 228.4 117.493 226.667 120.404 227.875C123.314 229.083 124.954 227.304 125.08 228.928C125.248 230.941 121.744 236.049 117.533 234.066Z" fill="white"/>
<path d="M120.915 229.782C121.344 230.32 121.051 230.848 120.509 231.277C119.968 231.706 119.391 231.875 118.962 231.337C118.756 231.078 118.661 230.747 118.698 230.418C118.736 230.089 118.902 229.789 119.161 229.583C119.42 229.377 119.751 229.282 120.08 229.319C120.409 229.357 120.709 229.523 120.915 229.782Z" fill="#FF8B00"/>
<path d="M119.051 230.977C118.97 230.833 118.928 230.67 118.928 230.505C118.928 230.34 118.97 230.177 119.051 230.033C119.249 229.736 119.486 230.033 119.381 230.258C119.275 230.482 118.935 230.584 119.051 230.977Z" fill="white"/>
<path d="M211.335 224.829H142.352C141.312 224.829 140.468 225.673 140.468 226.713C140.468 227.754 141.312 228.598 142.352 228.598H211.335C212.376 228.598 213.22 227.754 213.22 226.713C213.22 225.673 212.376 224.829 211.335 224.829Z" fill="#162A4D"/>
<path d="M212.045 233.944H141.643C140.994 233.944 140.468 234.47 140.468 235.118C140.468 235.767 140.994 236.293 141.643 236.293H212.045C212.694 236.293 213.22 235.767 213.22 235.118C213.22 234.47 212.694 233.944 212.045 233.944Z" fill="#FBCDB1"/>
<path d="M179.375 239.669H141.643C140.994 239.669 140.468 240.195 140.468 240.844C140.468 241.493 140.994 242.019 141.643 242.019H179.375C180.024 242.019 180.55 241.493 180.55 240.844C180.55 240.195 180.024 239.669 179.375 239.669Z" fill="#FBCDB1"/>
<path d="M231.191 224.829H222.123C221.356 224.829 220.734 225.451 220.734 226.218V234.904C220.734 235.671 221.356 236.293 222.123 236.293H231.191C231.959 236.293 232.581 235.671 232.581 234.904V226.218C232.581 225.451 231.959 224.829 231.191 224.829Z" fill="#FFBA40"/>
<path d="M227.04 230.168H228.06V230.908H227.04V232.059H226.261V230.908H225.238V230.168H226.261V229.063H227.04V230.168Z" fill="white"/>
<path d="M117.926 175.596C117.926 175.596 138.93 194.169 139.234 197.34C139.537 200.511 131.812 204.319 116.111 194.858C100.409 185.397 95.5548 182.391 95.5548 182.391L117.926 175.596Z" fill="#CE635B"/>
<path d="M80.7146 297.02C80.7146 297.02 90.6147 254.819 106.016 245.82C115.856 240.065 123.39 240.019 135.495 225.509C147.503 211.117 148.853 215.645 153.014 212.589C157.176 209.534 151.83 198.264 135.409 204.93C118.493 211.807 115.299 208.51 119.899 199.769C124.499 191.027 143.071 160.918 151.005 150.094C158.938 139.27 161.895 123.898 153.417 124.644C150.503 124.898 113.685 169.158 113.685 169.158C113.685 169.158 109.821 163.825 104.207 161.499C98.3168 159.057 94.8848 162.159 92.8257 160.377C90.7665 158.595 85.427 152.691 77.1771 157.229C70.0293 161.159 69.6234 158.809 64.3071 158.935C58.9908 159.06 53.8428 163.822 48.8796 173.923C43.0221 185.846 40.3326 201.241 39.2766 223.351C38.5638 238.28 30.0366 262.103 22.1331 277.415L80.7146 297.02Z" fill="#FFA397"/>
<path d="M85.427 281.596L88.3277 272.89C88.3277 272.89 69.686 253.734 32.957 254.648L85.427 281.596Z" fill="#162A4D"/>
<path d="M106.075 177.672L116.596 165.911" stroke="#162A4D" stroke-width="2" stroke-linecap="round" stroke-linejoin="round"/>
<path d="M96.5382 160.472C96.5382 160.472 91.1723 160.034 85.4897 169.564" stroke="#162A4D" stroke-width="2" stroke-linecap="round" stroke-linejoin="round"/>
<path d="M78.9162 156.42C78.9162 156.42 72.4119 156.724 67.9371 165.785" stroke="#162A4D" stroke-width="2" stroke-linecap="round" stroke-linejoin="round"/>
<path d="M90.5707 286.224C93.0493 279.837 79.2518 268.525 59.7531 260.958C40.2544 253.391 22.4384 252.435 19.9598 258.822C17.4812 265.208 31.2787 276.52 50.7774 284.087C70.2761 291.654 88.0921 292.611 90.5707 286.224Z" fill="#F25E02"/>
<path d="M19.958 258.819L8.83447 287.483L79.4454 314.885L90.5689 286.222L19.958 258.819Z" fill="#F25E02"/>
<path d="M79.4467 314.884C81.9253 308.497 68.1278 297.185 48.6291 289.618C29.1304 282.051 11.3143 281.094 8.83576 287.481C6.35718 293.868 20.1547 305.18 39.6534 312.747C59.152 320.314 76.9681 321.271 79.4467 314.884Z" fill="#162A4D"/>
<path d="M79.4467 314.884C81.9253 308.497 68.1278 297.185 48.6291 289.618C29.1304 282.051 11.3143 281.094 8.83576 287.481C6.35718 293.868 20.1547 305.18 39.6534 312.747C59.152 320.314 76.9681 321.271 79.4467 314.884Z" stroke="white" stroke-width="2" stroke-linecap="round" stroke-linejoin="round"/>
<path d="M74.2566 294.02C77.7212 294.02 80.5299 291.211 80.5299 287.747C80.5299 284.282 77.7212 281.474 74.2566 281.474C70.7919 281.474 67.9833 284.282 67.9833 287.747C67.9833 291.211 70.7919 294.02 74.2566 294.02Z" stroke="white" stroke-width="2" stroke-linecap="round" stroke-linejoin="round"/>
</svg>
