<svg width="330" height="330" viewBox="0 0 330 330" fill="none" xmlns="http://www.w3.org/2000/svg">
<path d="M250.229 96.4524C274.527 114.408 319.694 228.046 300.666 269.871C282.8 309.141 155.169 307.629 91.8852 302.349C28.6011 297.069 12.1539 267.679 23.5389 213.015C38.5506 140.91 61.083 91.0965 103.574 84.3249C148.041 77.2398 224.232 77.2398 250.229 96.4524Z" fill="#FEEFE6"/>
<path d="M287.631 106.329L286.618 108.969C286.555 109.132 286.459 109.28 286.336 109.403C286.212 109.526 286.065 109.622 285.902 109.685L283.262 110.695C283.031 110.788 282.833 110.947 282.694 111.153C282.555 111.359 282.48 111.602 282.48 111.85C282.48 112.099 282.555 112.342 282.694 112.548C282.833 112.753 283.031 112.913 283.262 113.005L285.902 114.018C286.065 114.08 286.214 114.176 286.337 114.3C286.46 114.423 286.556 114.571 286.618 114.734L287.631 117.374C287.724 117.605 287.883 117.803 288.089 117.942C288.295 118.082 288.538 118.156 288.786 118.156C289.035 118.156 289.278 118.082 289.484 117.942C289.69 117.803 289.849 117.605 289.941 117.374L290.954 114.734C291.016 114.572 291.112 114.424 291.235 114.301C291.357 114.177 291.505 114.081 291.667 114.018L294.307 113.005C294.538 112.913 294.736 112.753 294.875 112.548C295.014 112.342 295.089 112.099 295.089 111.85C295.089 111.602 295.014 111.359 294.875 111.153C294.736 110.947 294.538 110.788 294.307 110.695L291.667 109.685C291.505 109.622 291.358 109.525 291.236 109.402C291.113 109.279 291.017 109.131 290.954 108.969L289.941 106.329C289.849 106.099 289.69 105.901 289.484 105.761C289.278 105.622 289.035 105.548 288.786 105.548C288.538 105.548 288.295 105.622 288.089 105.761C287.883 105.901 287.724 106.099 287.631 106.329Z" fill="#FEEFE6"/>
<path d="M13.0317 157.324L11.55 161.192C11.4582 161.431 11.317 161.649 11.1356 161.83C10.9543 162.012 10.7368 162.153 10.4973 162.245L6.62969 163.73C6.28387 163.862 5.98632 164.096 5.77641 164.401C5.56649 164.706 5.4541 165.067 5.4541 165.437C5.4541 165.807 5.56649 166.169 5.77641 166.474C5.98632 166.779 6.28387 167.013 6.62969 167.145L10.494 168.63C10.7337 168.721 10.9515 168.862 11.1334 169.043C11.3153 169.223 11.4573 169.44 11.55 169.679L13.035 173.55C13.1677 173.895 13.4018 174.192 13.7064 174.401C14.0109 174.61 14.3717 174.722 14.7411 174.722C15.1105 174.722 15.4713 174.61 15.7758 174.401C16.0804 174.192 16.3144 173.895 16.4472 173.55L17.9355 169.679C18.027 169.441 18.1673 169.225 18.3475 169.044C18.5276 168.863 18.7436 168.722 18.9816 168.63L22.8525 167.145C23.1983 167.013 23.4959 166.779 23.7058 166.474C23.9157 166.169 24.0281 165.807 24.0281 165.437C24.0281 165.067 23.9157 164.706 23.7058 164.401C23.4959 164.096 23.1983 163.862 22.8525 163.73L18.9816 162.245C18.7425 162.153 18.5255 162.011 18.3446 161.83C18.1638 161.649 18.0233 161.431 17.9322 161.192L16.4439 157.324C16.3111 156.979 16.0771 156.683 15.7725 156.474C15.468 156.265 15.1072 156.153 14.7378 156.153C14.3684 156.153 14.0076 156.265 13.7031 156.474C13.3985 156.683 13.1644 156.979 13.0317 157.324Z" fill="#FEEFE6"/>
<path d="M201.65 193.469L200.66 196.07C200.598 196.23 200.503 196.377 200.38 196.498C200.258 196.62 200.112 196.714 199.95 196.776L197.353 197.766C197.121 197.854 196.921 198.012 196.78 198.216C196.639 198.421 196.564 198.664 196.564 198.912C196.564 199.161 196.639 199.404 196.78 199.609C196.921 199.813 197.121 199.97 197.353 200.059L199.95 201.049C200.111 201.111 200.257 201.206 200.38 201.327C200.502 201.449 200.597 201.595 200.66 201.755L201.65 204.356C201.735 204.594 201.892 204.799 202.099 204.944C202.306 205.09 202.552 205.167 202.805 205.167C203.057 205.167 203.304 205.09 203.511 204.944C203.717 204.799 203.874 204.594 203.96 204.356L204.95 201.755C205.011 201.595 205.106 201.448 205.227 201.327C205.349 201.205 205.495 201.11 205.656 201.049L208.253 200.059C208.485 199.97 208.685 199.813 208.826 199.609C208.967 199.404 209.043 199.161 209.043 198.912C209.043 198.664 208.967 198.421 208.826 198.216C208.685 198.012 208.485 197.854 208.253 197.766L205.656 196.776C205.495 196.715 205.348 196.621 205.227 196.499C205.105 196.377 205.011 196.231 204.95 196.07L203.96 193.469C203.874 193.231 203.717 193.026 203.511 192.881C203.304 192.735 203.057 192.657 202.805 192.657C202.552 192.657 202.306 192.735 202.099 192.881C201.892 193.026 201.735 193.231 201.65 193.469Z" fill="white"/>
<path d="M97.9275 269.227L97.2675 270.973C97.2263 271.081 97.1626 271.179 97.0807 271.261C96.9988 271.343 96.9005 271.407 96.7923 271.448L95.0466 272.108C94.8906 272.168 94.7564 272.273 94.6617 272.411C94.5671 272.549 94.5164 272.712 94.5164 272.879C94.5164 273.046 94.5671 273.209 94.6617 273.346C94.7564 273.484 94.8906 273.59 95.0466 273.649L96.7923 274.309C96.9002 274.351 96.9982 274.415 97.0801 274.497C97.1619 274.578 97.2257 274.676 97.2675 274.784L97.9275 276.533C97.9872 276.689 98.0928 276.824 98.2304 276.918C98.368 277.013 98.531 277.064 98.6981 277.064C98.8651 277.064 99.0282 277.013 99.1657 276.918C99.3033 276.824 99.4089 276.689 99.4686 276.533L100.129 274.784C100.171 274.677 100.235 274.579 100.317 274.497C100.398 274.416 100.496 274.352 100.604 274.309L102.353 273.649C102.509 273.59 102.643 273.484 102.738 273.346C102.832 273.209 102.883 273.046 102.883 272.879C102.883 272.712 102.832 272.549 102.738 272.411C102.643 272.273 102.509 272.168 102.353 272.108L100.604 271.448C100.496 271.406 100.398 271.342 100.316 271.261C100.234 271.179 100.17 271.081 100.129 270.973L99.4686 269.227C99.4089 269.071 99.3033 268.937 99.1657 268.842C99.0282 268.748 98.8651 268.697 98.6981 268.697C98.531 268.697 98.368 268.748 98.2304 268.842C98.0928 268.937 97.9872 269.071 97.9275 269.227Z" fill="white"/>
<path d="M116.741 97.68L116.081 99.4257C116.04 99.5339 115.976 99.6322 115.894 99.7141C115.812 99.796 115.714 99.8597 115.606 99.9009L113.86 100.561C113.704 100.621 113.57 100.726 113.475 100.864C113.38 101.001 113.33 101.164 113.33 101.331C113.33 101.498 113.38 101.662 113.475 101.799C113.57 101.937 113.704 102.042 113.86 102.102L115.606 102.762C115.714 102.803 115.812 102.867 115.894 102.949C115.976 103.031 116.04 103.129 116.081 103.237L116.741 104.983C116.8 105.139 116.906 105.273 117.044 105.368C117.181 105.462 117.344 105.513 117.511 105.513C117.678 105.513 117.841 105.462 117.979 105.368C118.117 105.273 118.222 105.139 118.282 104.983L118.942 103.237C118.983 103.129 119.047 103.031 119.129 102.949C119.211 102.867 119.309 102.803 119.417 102.762L121.163 102.102C121.319 102.042 121.453 101.937 121.548 101.799C121.642 101.662 121.693 101.498 121.693 101.331C121.693 101.164 121.642 101.001 121.548 100.864C121.453 100.726 121.319 100.621 121.163 100.561L119.417 99.9009C119.309 99.8597 119.211 99.796 119.129 99.7141C119.047 99.6322 118.983 99.5339 118.942 99.4257L118.282 97.68C118.222 97.524 118.117 97.3898 117.979 97.2951C117.841 97.2004 117.678 97.1497 117.511 97.1497C117.344 97.1497 117.181 97.2004 117.044 97.2951C116.906 97.3898 116.8 97.524 116.741 97.68Z" fill="white"/>
<path d="M148.269 169.429C148.144 174.864 153.074 179.329 159.281 179.329C165.488 179.329 170.468 174.85 170.399 169.429C170.333 164.086 165.403 159.822 159.387 159.822C153.371 159.822 148.394 164.086 148.269 169.429Z" fill="#FFC39E"/>
<path d="M71.61 299.508C74.1268 300.034 76.7492 300.501 79.4772 300.91L86.3742 238.418H94.3569C104.075 238.418 111.408 246.253 110.685 256.126L107.22 303.461C109.834 303.626 112.512 303.782 115.256 303.927L118.249 256.126C119.123 242.204 108.709 231.274 95.0664 231.274H87.1662L93.6507 172.491H129.951C130.941 184.741 141.563 194.796 155.585 196.31L154.4 305.075C157.192 305.09 159.999 305.09 162.822 305.075V232.37H277.332L286.067 284.757C288.535 283.293 290.868 281.613 293.04 279.738L284.612 232.373H304.705C304.507 230.063 304.25 227.726 303.946 225.35H283.361L273.956 172.491H291.116C290.423 170.447 289.715 168.416 288.991 166.396H221.602L219.239 141.55C218.48 133.574 210.256 127.241 200.891 127.241C194.951 127.241 189.902 123.281 189.671 118.5L189.572 116.434H266.076C265.059 114.735 264.048 113.116 263.043 111.576H189.351L187.892 80.7774C186.004 80.652 184.104 80.542 182.19 80.4474L183.328 111.58H162.779V79.9887C160.799 79.9887 158.826 80.0041 156.859 80.0349L156.529 111.58H100.369L103.372 84.3645C101.391 84.686 99.4269 85.1089 97.4886 85.6317L94.3503 111.58H61.5351C60.3537 113.137 59.202 114.755 58.08 116.434H93.7629L87.7173 166.396H35.4519C34.8139 168.4 34.1902 170.432 33.5808 172.491H86.9814L79.86 231.274H20.7108C20.4908 233.718 20.3379 236.1 20.2521 238.418H78.9921L71.61 299.508ZM214.995 166.396H188.43C186.404 154.846 175.765 145.972 162.782 144.685V116.434H183.506L183.582 118.5C183.859 126.067 191.779 132.36 201.227 132.36C207.233 132.36 212.467 136.442 212.896 141.537L214.995 166.396ZM162.799 196.31C176.837 194.796 187.575 184.741 188.684 172.491H267.3L276.141 225.35H162.805L162.799 196.31ZM137.389 169.429C137.815 158.921 147.678 150.658 159.436 150.658C171.194 150.658 180.969 158.908 181.282 169.429C181.612 180.319 171.739 189.404 159.228 189.404C146.718 189.404 136.95 180.305 137.389 169.429ZM94.3206 166.396L99.8349 116.434H156.453L156.146 144.685C143.151 145.972 132.419 154.836 130.271 166.396H94.3206Z" fill="white"/>
<path d="M230.525 159.034H272.583L268.689 137.346H228.119L230.525 159.034Z" fill="#FFC39E"/>
<path d="M29.9937 274.936H66.4455L70.4748 244.461H35.5476L29.9937 274.936Z" fill="#85A8FF"/>
<path d="M50.6121 161.799H81.3978L84.2919 139.917H54.5985L50.6121 161.799Z" fill="#FFC39E"/>
<path d="M140.478 109.019H152.856L153.136 93.9939H141.072L140.478 109.019Z" fill="#85A8FF"/>
<path d="M233.221 219.764H268.702L266.508 205.564H232.003L233.221 219.764Z" fill="#85A8FF"/>
<g opacity="0.1">
<path d="M260.961 97.8516C262.281 138.188 210.943 171.409 146.305 171.409C81.6684 171.409 29.8452 138.188 30.5481 97.8516C31.2411 58.2054 82.5759 26.5716 145.223 26.5716C207.87 26.5716 259.674 58.2054 260.961 97.8516Z" fill="#F25E02"/>
</g>
<g opacity="0.2">
<path d="M215.526 95.2875C216.318 119.708 185.236 139.838 146.091 139.838C106.946 139.838 75.5634 119.708 75.9891 95.2875C76.4115 71.2767 107.497 52.1169 145.434 52.1169C183.371 52.1169 214.747 71.28 215.526 95.2875Z" fill="#F25E02"/>
</g>
<g opacity="0.3">
<path d="M176.428 95.6703C176.778 106.409 163.116 115.253 145.906 115.253C128.697 115.253 114.906 106.409 115.094 95.6703C115.276 85.1103 128.954 76.6953 145.619 76.6953C162.284 76.6953 176.088 85.1169 176.428 95.6703Z" fill="#F25E02"/>
</g>
<path d="M223.789 221.057H268.62C269.26 221.057 269.873 220.803 270.326 220.351C270.778 219.898 271.032 219.285 271.032 218.645V196.304H221.377V218.645C221.377 219.285 221.631 219.898 222.084 220.351C222.536 220.803 223.15 221.057 223.789 221.057Z" fill="#F25E02"/>
<path d="M218.948 190.054H225.146V196.941C225.146 197.763 224.819 198.551 224.238 199.132C223.657 199.713 222.869 200.039 222.047 200.039C221.225 200.039 220.437 199.713 219.856 199.132C219.275 198.551 218.948 197.763 218.948 196.941V190.054Z" fill="#EF9F20"/>
<path d="M225.149 190.054H231.346V196.941C231.346 197.763 231.02 198.551 230.439 199.132C229.858 199.713 229.07 200.039 228.248 200.039C227.426 200.039 226.638 199.713 226.057 199.132C225.476 198.551 225.149 197.763 225.149 196.941V190.054Z" fill="#C24B02"/>
<path d="M231.346 190.054H237.544V196.941C237.544 197.763 237.217 198.551 236.636 199.132C236.055 199.713 235.267 200.039 234.445 200.039C233.623 200.039 232.835 199.713 232.254 199.132C231.673 198.551 231.346 197.763 231.346 196.941V190.054Z" fill="#EF9F20"/>
<path d="M237.544 190.054H243.741V196.941C243.741 197.763 243.415 198.551 242.834 199.132C242.253 199.713 241.464 200.039 240.643 200.039C239.821 200.039 239.033 199.713 238.451 199.132C237.87 198.551 237.544 197.763 237.544 196.941V190.054Z" fill="#C24B02"/>
<path d="M243.745 190.054H249.942V196.941C249.942 197.763 249.615 198.551 249.034 199.132C248.453 199.713 247.665 200.039 246.843 200.039C246.021 200.039 245.233 199.713 244.652 199.132C244.071 198.551 243.745 197.763 243.745 196.941V190.054Z" fill="#EF9F20"/>
<path d="M249.942 190.054H256.139V196.941C256.139 197.763 255.813 198.551 255.232 199.132C254.651 199.713 253.862 200.039 253.041 200.039C252.219 200.039 251.431 199.713 250.85 199.132C250.268 198.551 249.942 197.763 249.942 196.941V190.054Z" fill="#C24B02"/>
<path d="M256.143 190.054H262.35V196.941C262.35 197.763 262.024 198.551 261.442 199.132C260.861 199.713 260.073 200.039 259.251 200.039C258.429 200.039 257.641 199.713 257.06 199.132C256.479 198.551 256.153 197.763 256.153 196.941V190.054H256.143Z" fill="#EF9F20"/>
<path d="M262.35 190.054H268.547V196.941C268.547 197.763 268.221 198.551 267.64 199.132C267.059 199.713 266.271 200.039 265.449 200.039C264.627 200.039 263.839 199.713 263.258 199.132C262.676 198.551 262.35 197.763 262.35 196.941V190.054Z" fill="#C24B02"/>
<path d="M268.537 190.054H274.735V196.941C274.735 197.763 274.408 198.551 273.827 199.132C273.246 199.713 272.458 200.039 271.636 200.039C270.814 200.039 270.026 199.713 269.445 199.132C268.864 198.551 268.537 197.763 268.537 196.941V190.054Z" fill="#EF9F20"/>
<path d="M274.738 190.054H218.948L224.192 183.236C224.644 182.649 225.226 182.173 225.891 181.846C226.557 181.52 227.289 181.35 228.03 181.352H265.65C266.39 181.351 267.121 181.521 267.785 181.848C268.449 182.175 269.03 182.649 269.481 183.236L274.738 190.054Z" fill="#FFBA40"/>
<path d="M228.03 181.351C226.994 181.353 225.986 181.689 225.156 182.309V190.054H231.353V181.351H228.03Z" fill="#F25E02"/>
<path d="M243.741 181.351H237.544V190.054H243.741V181.351Z" fill="#F25E02"/>
<path d="M256.139 181.351H249.942V190.054H256.139V181.351Z" fill="#F25E02"/>
<path d="M265.65 181.351H262.35V190.054H268.547V182.309C267.711 181.684 266.694 181.348 265.65 181.351Z" fill="#F25E02"/>
<path d="M236.042 202.884H227.307V221.057H236.042V202.884Z" fill="white"/>
<path d="M264.082 202.9H241.903V214.738H264.082V202.9Z" fill="white"/>
<path d="M32.2179 277.283H69.0129C69.7026 277.283 70.364 277.009 70.8517 276.521C71.3393 276.033 71.6133 275.372 71.6133 274.682V250.592H29.6175V274.682C29.6175 275.372 29.8915 276.033 30.3791 276.521C30.8668 277.009 31.5282 277.283 32.2179 277.283Z" fill="#F25E02"/>
<path d="M27.3471 243.87H34.0296V251.295C34.027 252.179 33.674 253.026 33.048 253.65C32.422 254.274 31.574 254.625 30.69 254.625C29.8043 254.625 28.9548 254.273 28.3286 253.647C27.7023 253.02 27.3504 252.171 27.3504 251.285V243.87H27.3471Z" fill="#1C2035"/>
<path d="M34.0296 243.87H40.7121V251.295C40.7121 252.181 40.3603 253.03 39.734 253.656C39.1077 254.283 38.2582 254.635 37.3725 254.635C36.4868 254.635 35.6373 254.283 35.011 253.656C34.3848 253.03 34.0329 252.181 34.0329 251.295V243.87H34.0296Z" fill="#C24B02"/>
<path d="M40.7121 243.87H47.3946V251.295C47.3946 251.734 47.3082 252.168 47.1404 252.573C46.9726 252.978 46.7266 253.346 46.4164 253.656C46.1063 253.967 45.7382 254.213 45.333 254.38C44.9278 254.548 44.4936 254.635 44.055 254.635C43.1693 254.635 42.3198 254.283 41.6935 253.656C41.0672 253.03 40.7154 252.181 40.7154 251.295V243.87H40.7121Z" fill="#1C2035"/>
<path d="M47.3946 243.87H54.0771V251.295C54.0771 252.181 53.7252 253.03 53.0989 253.656C52.4726 254.283 51.6232 254.635 50.7375 254.635C50.2989 254.635 49.8647 254.548 49.4595 254.38C49.0543 254.213 48.6862 253.967 48.376 253.656C48.0659 253.346 47.8199 252.978 47.6521 252.573C47.4843 252.168 47.3979 251.734 47.3979 251.295V243.87H47.3946Z" fill="#C24B02"/>
<path d="M54.0771 243.87H60.7596V251.295C60.757 252.179 60.404 253.026 59.778 253.65C59.1519 254.274 58.304 254.625 57.42 254.625C56.5343 254.625 55.6848 254.273 55.0585 253.647C54.4322 253.02 54.0804 252.171 54.0804 251.285V243.87H54.0771Z" fill="#1C2035"/>
<path d="M60.7596 243.87H67.4421V251.295C67.4421 252.181 67.0902 253.03 66.4639 253.656C65.8376 254.283 64.9882 254.635 64.1025 254.635C63.2168 254.635 62.3673 254.283 61.741 253.656C61.1147 253.03 60.7629 252.181 60.7629 251.295V243.87H60.7596Z" fill="#C24B02"/>
<path d="M67.4421 243.87H73.8804V251.417C73.8804 252.271 73.541 253.091 72.937 253.695C72.333 254.299 71.5138 254.638 70.6596 254.638C69.8054 254.638 68.9862 254.299 68.3821 253.695C67.7781 253.091 67.4388 252.271 67.4388 251.417V243.87H67.4421Z" fill="#1C2035"/>
<path d="M73.8804 243.87H27.3504L33 236.511C33.4867 235.879 34.112 235.367 34.8278 235.015C35.5435 234.662 36.3305 234.479 37.1283 234.478H64.0992C64.8971 234.478 65.6843 234.661 66.4001 235.014C67.1159 235.366 67.7411 235.879 68.2275 236.511L73.8804 243.87Z" fill="#04104A"/>
<path d="M37.1283 234.478C36.0112 234.48 34.9246 234.843 34.0296 235.511V243.87H40.7121V234.478H37.1283Z" fill="#F25E02"/>
<path d="M54.0771 234.478H47.3946V243.86H54.0771V234.478Z" fill="#F25E02"/>
<path d="M64.1025 234.478H60.7596V243.87H67.4421V235.696C66.5066 234.91 65.3242 234.479 64.1025 234.478Z" fill="#F25E02"/>
<path d="M45.7743 257.707H36.3594V277.282H45.7743V257.707Z" fill="white"/>
<path d="M66.6105 257.707H52.0905V270.468H66.6105V257.707Z" fill="white"/>
<path d="M140.742 97.7856L119.364 64.317H175.085L153.707 97.7856C153.012 98.8744 152.054 99.7705 150.921 100.391C149.788 101.012 148.516 101.337 147.225 101.337C145.933 101.337 144.661 101.012 143.528 100.391C142.395 99.7705 141.437 98.8744 140.742 97.7856Z" fill="#F25E02"/>
<path d="M147.223 80.025C165.199 80.025 179.771 65.4528 179.771 47.4771C179.771 29.5014 165.199 14.9292 147.223 14.9292C129.247 14.9292 114.675 29.5014 114.675 47.4771C114.675 65.4528 129.247 80.025 147.223 80.025Z" fill="#F25E02"/>
<path d="M147.223 59.7267C153.988 59.7267 159.472 54.2424 159.472 47.4771C159.472 40.7118 153.988 35.2275 147.223 35.2275C140.458 35.2275 134.973 40.7118 134.973 47.4771C134.973 54.2424 140.458 59.7267 147.223 59.7267Z" fill="white"/>
</svg>
