<svg width="25" height="24" viewBox="0 0 25 24" fill="none" xmlns="http://www.w3.org/2000/svg">
<path d="M12.1123 14H13.1123C13.6423 13.9984 14.15 13.7872 14.5248 13.4125C14.8995 13.0377 15.1107 12.5299 15.1123 12V2H6.11231C5.40083 2.00044 4.70235 2.19064 4.08888 2.55099C3.47541 2.91134 2.96915 3.42879 2.62231 4.05" stroke="#949699" stroke-width="1.5" stroke-linecap="round" stroke-linejoin="round"/>
<path d="M2.1123 17C2.1123 17.7956 2.42838 18.5587 2.99098 19.1213C3.55359 19.6839 4.31666 20 5.1123 20H6.1123C6.1123 19.4696 6.32302 18.9609 6.69809 18.5858C7.07316 18.2107 7.58187 18 8.1123 18C8.64274 18 9.15145 18.2107 9.52652 18.5858C9.90159 18.9609 10.1123 19.4696 10.1123 20H14.1123C14.1123 19.4696 14.323 18.9609 14.6981 18.5858C15.0732 18.2107 15.5819 18 16.1123 18C16.6427 18 17.1514 18.2107 17.5265 18.5858C17.9016 18.9609 18.1123 19.4696 18.1123 20H19.1123C19.908 20 20.671 19.6839 21.2336 19.1213C21.7962 18.5587 22.1123 17.7956 22.1123 17V14H19.1123C18.8471 14 18.5927 13.8946 18.4052 13.7071C18.2177 13.5196 18.1123 13.2652 18.1123 13V10C18.1123 9.73478 18.2177 9.48043 18.4052 9.29289C18.5927 9.10536 18.8471 9 19.1123 9H20.4023L18.6923 6.01C18.5161 5.70402 18.2627 5.44968 17.9573 5.27243C17.6519 5.09518 17.3054 5.00124 16.9523 5H15.1123V12C15.1107 12.5299 14.8995 13.0377 14.5248 13.4125C14.15 13.7872 13.6423 13.9984 13.1123 14H12.1123" stroke="#949699" stroke-width="1.5" stroke-linecap="round" stroke-linejoin="round"/>
<path d="M10.1123 20C10.1123 20.3956 9.99501 20.7822 9.77524 21.1111C9.55548 21.44 9.24312 21.6964 8.87767 21.8478C8.51222 21.9991 8.11009 22.0387 7.72213 21.9616C7.33416 21.8844 6.9778 21.6939 6.69809 21.4142C6.41839 21.1345 6.22791 20.7781 6.15074 20.3902C6.07356 20.0022 6.11317 19.6001 6.26455 19.2346C6.41592 18.8692 6.67227 18.5568 7.00117 18.3371C7.33006 18.1173 7.71674 18 8.11231 18C8.64274 18 9.15145 18.2107 9.52652 18.5858C9.90159 18.9609 10.1123 19.4696 10.1123 20Z" stroke="#949699" stroke-width="1.5" stroke-linecap="round" stroke-linejoin="round"/>
<path d="M18.1123 20C18.1123 20.3956 17.995 20.7822 17.7752 21.1111C17.5555 21.44 17.2431 21.6964 16.8777 21.8478C16.5122 21.9991 16.1101 22.0387 15.7221 21.9616C15.3342 21.8844 14.9778 21.6939 14.6981 21.4142C14.4184 21.1345 14.2279 20.7781 14.1507 20.3902C14.0736 20.0022 14.1132 19.6001 14.2645 19.2346C14.4159 18.8692 14.6723 18.5568 15.0012 18.3371C15.3301 18.1173 15.7167 18 16.1123 18C16.6427 18 17.1514 18.2107 17.5265 18.5858C17.9016 18.9609 18.1123 19.4696 18.1123 20Z" stroke="#949699" stroke-width="1.5" stroke-linecap="round" stroke-linejoin="round"/>
<path d="M22.1123 12V14H19.1123C18.8471 14 18.5927 13.8946 18.4052 13.7071C18.2177 13.5196 18.1123 13.2652 18.1123 13V10C18.1123 9.73478 18.2177 9.48043 18.4052 9.29289C18.5927 9.10536 18.8471 9 19.1123 9H20.4023L22.1123 12Z" stroke="#949699" stroke-width="1.5" stroke-linecap="round" stroke-linejoin="round"/>
<path d="M2.1123 8H8.1123" stroke="#949699" stroke-width="1.5" stroke-linecap="round" stroke-linejoin="round"/>
<path d="M2.1123 11H6.1123" stroke="#949699" stroke-width="1.5" stroke-linecap="round" stroke-linejoin="round"/>
<path d="M2.1123 14H4.1123" stroke="#949699" stroke-width="1.5" stroke-linecap="round" stroke-linejoin="round"/>
</svg>
